<?xml version="1.0" encoding="UTF-8" standalone="no"?>
<!-- Created with Inkscape (http://www.inkscape.org/) -->

<svg
   width="89.011185mm"
   height="149.3009mm"
   viewBox="0 0 89.011185 149.3009"
   version="1.1"
   id="svg5"
   sodipodi:docname="boy_with_paper.svg"
   inkscape:export-filename="anonymysation.png"
   inkscape:export-xdpi="96"
   inkscape:export-ydpi="96"
   xmlns:inkscape="http://www.inkscape.org/namespaces/inkscape"
   xmlns:sodipodi="http://sodipodi.sourceforge.net/DTD/sodipodi-0.dtd"
   xmlns="http://www.w3.org/2000/svg"
   xmlns:svg="http://www.w3.org/2000/svg">
  <sodipodi:namedview
     id="namedview7"
     pagecolor="#ffffff"
     bordercolor="#000000"
     borderopacity="0.25"
     inkscape:showpageshadow="2"
     inkscape:pageopacity="0.0"
     inkscape:pagecheckerboard="0"
     inkscape:deskcolor="#d1d1d1"
     inkscape:document-units="mm"
     showgrid="false" />
  <defs
     id="defs2">
    <inkscape:path-effect
       effect="bspline"
       id="path-effect26145"
       is_visible="true"
       lpeversion="1"
       weight="33.333333"
       steps="2"
       helper_size="0"
       apply_no_weight="true"
       apply_with_weight="true"
       only_selected="false" />
  </defs>
  <g
     inkscape:label="Layer 1"
     inkscape:groupmode="layer"
     id="layer1"
     transform="translate(-153.32761,-37.625128)">
    <ellipse
       style="font-variation-settings:normal;opacity:1;fill:#ffffff;fill-opacity:1;stroke:#000000;stroke-width:6.923;stroke-linecap:butt;stroke-linejoin:bevel;stroke-miterlimit:4;stroke-dasharray:none;stroke-dashoffset:0;stroke-opacity:1;paint-order:stroke markers fill;stop-color:#000000;stop-opacity:1"
       id="path26147"
       cx="186.7235"
       cy="67.65229"
       rx="26.12446"
       ry="26.565662"
       inkscape:export-filename="hand_click.svg"
       inkscape:export-xdpi="96"
       inkscape:export-ydpi="96" />
    <ellipse
       style="font-variation-settings:normal;opacity:1;fill:#ffffff;fill-opacity:1;stroke:#000000;stroke-width:9.756;stroke-linecap:butt;stroke-linejoin:bevel;stroke-miterlimit:4;stroke-dasharray:none;stroke-dashoffset:0;stroke-opacity:1;paint-order:stroke markers fill;stop-color:#000000;stop-opacity:1"
       id="ellipse26149"
       cx="186.7235"
       cy="67.65229"
       rx="18.743889"
       ry="19.060444" />
    <path
       style="font-variation-settings:normal;opacity:1;fill:#ffffff;fill-opacity:1;stroke:#000000;stroke-width:9.703;stroke-linecap:butt;stroke-linejoin:bevel;stroke-miterlimit:4;stroke-dasharray:none;stroke-dashoffset:0;stroke-opacity:1;paint-order:stroke markers fill;stop-color:#000000;stop-opacity:1"
       d="m 177.09069,146.38293 c -5.34332,-9.87812 -15.24569,-15.80974 -18.04018,-20.39356 -2.79448,-4.58382 1.51935,-7.81919 7.37779,-6.47091 5.85844,1.34828 13.26044,7.27968 20.66286,13.21142 -2.99038,-21.07975 -5.98067,-42.158807 -5.63738,-52.527427 0.34329,-10.36862 4.01985,-10.025475 7.86808,4.902361 3.84824,14.927836 7.86793,44.438296 9.069,50.370156 1.20107,5.93185 -0.41661,-11.71561 0.85813,-20.29487 1.27475,-8.57926 5.44151,-8.08905 8.11316,0.39216 2.67165,8.48122 3.84815,24.95218 4.06875,24.68254 0.22061,-0.26964 -0.5147,-17.27984 1.51992,-25.41787 2.03462,-8.13803 6.83865,-7.40271 9.11811,1.2746 2.27945,8.67731 2.03434,25.29529 2.35299,25.24626 0.31865,-0.049 1.20104,-16.76539 3.26015,-24.95231 2.05911,-8.18691 5.29453,-7.84376 7.15729,-3.48053 1.86276,4.36323 2.35297,12.74588 2.54904,17.32951 0.19607,4.58363 0.0981,5.36775 1e-5,6.15212 0.0981,3.92181 0.1961,7.84382 -0.14708,15.78563 -0.34318,7.94182 -1.12749,19.90268 -5.43659,25.36782 -4.3091,5.46513 -12.14248,4.43374 -20.69714,4.4092 -8.55465,-0.0246 -17.82969,0.95787 -22.85945,-5.46286 -5.02976,-6.42073 -5.81413,-20.24533 -11.15746,-30.12344 z"
       id="path26143"
       inkscape:path-effect="#path-effect26145"
       inkscape:original-d="m 181.64964,142.43637 c -9.90232,-5.93148 -19.80469,-11.8631 -29.70773,-17.79523 4.31434,-3.2353 8.62817,-6.47067 12.94198,-9.70649 7.40283,5.93212 22.20727,17.79523 22.20727,17.79523 0,0 -5.98044,-42.15884 -8.97115,-63.239239 3.67704,0.34343 7.3536,0.686575 11.03011,1.029476 4.0202,29.512503 8.0399,59.022963 12.05957,88.534933 -1.61752,-17.64825 -3.2352,-35.29571 -4.85325,-52.94448 4.16727,0.4905 8.33403,0.98071 12.50077,1.47068 1.17684,16.47221 2.35334,32.94317 3.52964,49.41485 -0.73509,-17.01095 -1.4704,-34.02115 -2.20602,-51.0326 4.80458,0.73562 9.60861,1.47093 14.41267,2.20603 -0.24485,16.61931 -0.48996,33.23729 -0.73534,49.85604 0.88269,-16.71679 1.76508,-33.43316 2.64722,-50.15019 3.23577,0.34343 6.47119,0.68658 9.70649,1.02948 0.4905,8.38331 0.98071,16.76596 1.47067,25.14862 -0.0978,0.78464 -0.29413,2.3531 -0.29413,2.3531 0,0 0.19635,7.84381 0.29414,11.76543 -0.78412,11.96204 -1.56843,23.9229 -2.35309,35.8846 -7.83385,-1.03122 -15.66723,-2.06262 -23.50148,-3.09435 -9.275,0.98271 -18.55004,1.96513 -27.82525,2.94728 -0.78409,-13.82391 -1.56846,-27.64851 -2.35309,-41.47317 z"
       sodipodi:nodetypes="sccccccccccccccccccccs" />
  </g>
</svg>
