<svg width="1055" height="1055" xmlns="http://www.w3.org/2000/svg" xmlns:xlink="http://www.w3.org/1999/xlink" xml:space="preserve" overflow="hidden"><defs><clipPath id="clip0"><rect x="2514" y="685" width="1055" height="1055"/></clipPath></defs><g clip-path="url(#clip0)" transform="translate(-2514 -685)"><path d="M2947 1122.69 3439.27 1113 3517 1222.85 3439.27 1319.77 3368.02 1242.23 3306.49 1310.08 3219.05 1239 3160.75 1319.77 3102.45 1268.08 3070.07 1319.77 2953.48 1323 2947 1122.69Z" fill="#FFFFFF" fill-rule="evenodd"/><path d="M2566 1215.5C2566 1094.27 2665.17 996 2787.5 996 2909.83 996 3009 1094.27 3009 1215.5 3009 1336.73 2909.83 1435 2787.5 1435 2665.17 1435 2566 1336.73 2566 1215.5Z" fill="#FFFFFF" fill-rule="evenodd"/><path d="M478.047 417.725C417.354 305.605 277.261 263.916 165.14 324.61 53.0207 385.304 11.3318 525.397 72.0255 637.517 132.719 749.637 272.812 791.326 384.932 730.631 424.353 709.292 456.707 676.937 478.047 637.517L549.479 637.517 593.438 593.558 637.396 637.517 708.828 566.084 780.26 637.517 851.693 566.084 923.125 637.517 1011.04 527.621 923.125 417.725ZM921.323 604.658 867.276 550.578 851.693 535.039 836.186 550.578 780.26 606.493 724.411 550.578 708.828 535.039 693.322 550.578 637.396 606.493 609.01 578.052 593.438 562.524 577.92 578.052 540.402 615.581 465.024 615.581 458.771 627.044C403.87 728.496 277.121 766.234 175.668 711.334 74.2163 656.433 36.4784 529.684 91.379 428.231 146.279 326.779 273.029 289.04 374.481 343.941 410.17 363.254 439.459 392.544 458.771 428.231L465.024 439.693 912.608 439.693 947.665 483.542 505.521 483.542 505.521 505.521 965.248 505.521 982.941 527.643Z" stroke="#000000" stroke-width="10.9895" transform="matrix(1 0 0 1 2514 685)"/><path d="M175.833 461.694C139.417 461.694 109.896 491.216 109.896 527.632 109.896 564.048 139.417 593.569 175.833 593.569 212.25 593.569 241.771 564.048 241.771 527.632 241.657 491.263 212.202 461.809 175.833 461.694ZM175.833 571.59C151.556 571.59 131.875 551.909 131.875 527.632 131.875 503.355 151.556 483.674 175.833 483.674 200.11 483.674 219.792 503.355 219.792 527.632 219.773 551.907 200.108 571.587 175.833 571.623Z" stroke="#000000" stroke-width="10.9895" transform="matrix(1 0 0 1 2514 685)"/></g></svg>