<?xml version="1.0" encoding="UTF-8" standalone="no"?>
<!-- Created with Inkscape (http://www.inkscape.org/) -->

<svg
   width="41.355198mm"
   height="42.81601mm"
   viewBox="0 0 41.355198 42.81601"
   version="1.1"
   id="svg5"
   sodipodi:docname="FAIR comunity.svg"
   inkscape:version="1.2.2 (732a01da63, 2022-12-09)"
   xmlns:inkscape="http://www.inkscape.org/namespaces/inkscape"
   xmlns:sodipodi="http://sodipodi.sourceforge.net/DTD/sodipodi-0.dtd"
   xmlns="http://www.w3.org/2000/svg"
   xmlns:svg="http://www.w3.org/2000/svg">
  <sodipodi:namedview
     id="namedview7"
     pagecolor="#ffffff"
     bordercolor="#000000"
     borderopacity="0.25"
     inkscape:showpageshadow="2"
     inkscape:pageopacity="0.0"
     inkscape:pagecheckerboard="0"
     inkscape:deskcolor="#d1d1d1"
     inkscape:document-units="mm"
     showgrid="false"
     inkscape:zoom="1.7155495"
     inkscape:cx="346.24474"
     inkscape:cy="670.33915"
     inkscape:window-width="1649"
     inkscape:window-height="510"
     inkscape:window-x="4035"
     inkscape:window-y="485"
     inkscape:window-maximized="0"
     inkscape:current-layer="layer1" />
  <defs
     id="defs2">
    <inkscape:path-effect
       effect="bspline"
       id="path-effect22424"
       is_visible="true"
       lpeversion="1"
       weight="33.333333"
       steps="2"
       helper_size="0"
       apply_no_weight="true"
       apply_with_weight="true"
       only_selected="false" />
    <inkscape:path-effect
       effect="bspline"
       id="path-effect22420"
       is_visible="true"
       lpeversion="1"
       weight="33.333333"
       steps="2"
       helper_size="0"
       apply_no_weight="true"
       apply_with_weight="true"
       only_selected="false" />
  </defs>
  <g
     inkscape:label="Layer 1"
     inkscape:groupmode="layer"
     id="layer1"
     transform="translate(-119.71069,-174.3609)">
    <rect
       style="fill:#ffffff;fill-opacity:1;stroke:#000000;stroke-width:0.717255;stroke-linecap:square;stroke-dasharray:none;stroke-opacity:1;paint-order:normal;stop-color:#000000"
       id="rect22404"
       width="17.947554"
       height="23.032982"
       x="41.851116"
       y="210.89336"
       ry="0"
       transform="matrix(0.94452405,-0.32844225,0.38712101,0.92202892,0,0)" />
    <path
       style="fill:none;fill-opacity:1;stroke:#000000;stroke-width:0.83489;stroke-linecap:square;stroke-dasharray:none;stroke-opacity:1;paint-order:normal;stop-color:#000000"
       d="m 125.35342,183.72977 c 3.86627,-1.35146 7.73241,-2.70287 9.70733,-3.40032 1.97492,-0.69745 2.05853,-0.74086 2.14209,-0.78425"
       id="path22406"
       inkscape:path-effect="#path-effect22420"
       inkscape:original-d="m 125.35342,183.72977 c 3.86632,-1.35131 7.73246,-2.70272 11.59842,-4.05424 0.0839,-0.0434 0.16752,-0.0868 0.251,-0.13033"
       sodipodi:nodetypes="ccc" />
    <path
       style="fill:none;fill-opacity:1;stroke:#000000;stroke-width:0.83489;stroke-linecap:square;stroke-dasharray:none;stroke-opacity:1;paint-order:normal;stop-color:#000000"
       d="m 127.71682,186.86274 c 3.69894,-1.26457 7.39774,-2.5291 11.09642,-3.79358"
       id="path22408"
       inkscape:path-effect="#path-effect22424"
       inkscape:original-d="m 127.71682,186.86274 c 3.69899,-1.26441 7.39779,-2.52894 11.09642,-3.79358"
       sodipodi:nodetypes="cc" />
    <path
       style="fill:#ffffff;fill-opacity:1;stroke:#000000;stroke-width:0.499999;stroke-linecap:round;stroke-dasharray:none;stroke-dashoffset:0;stroke-opacity:1;paint-order:normal;stop-color:#000000"
       d="m 131.68524,193.69147 c 0.12717,-0.4764 0.14416,-1.04427 0.0193,-1.52299 -0.0582,-0.2229 -0.1803,-0.42397 -0.2699,-0.63618 -0.0325,-0.077 -0.0547,-0.15892 -0.0964,-0.23134 -0.10663,-0.18544 -0.22435,-0.36456 -0.34701,-0.5398 -0.0219,-0.0313 -0.26637,-0.35876 -0.34701,-0.40484 -0.0742,-0.0424 -0.2589,0.16172 -0.2699,0.17351 -0.31263,0.33496 -0.47484,0.64158 -0.65546,1.0603 -0.0709,0.16437 -0.12717,0.33469 -0.19278,0.50124 -0.0179,0.0455 -0.0479,0.087 -0.0578,0.13495 -0.0625,0.30204 -0.0694,0.5791 -0.0771,0.8868 -0.005,0.21842 -0.0128,0.43735 0,0.65546 0.0172,0.2918 0.0399,0.3077 0.11567,0.57835 0.0908,0.32424 0.15768,0.5257 0.34701,0.80969 0.1061,0.15915 0.26484,0.38974 0.42412,0.50124 0.24995,0.17496 0.60331,0.28212 0.90608,0.30845 0.258,0.0224 0.72344,-0.0644 0.90609,-0.26989 0.24387,-0.27436 0.33543,-0.83226 0.38556,-1.17598 0.0272,-0.18615 0.0584,-0.37189 0.0771,-0.55907 0.007,-0.0703 -0.001,-0.14139 0,-0.21206 0.0232,-1.16158 0.0193,-0.34395 0.0193,-1.21454 0,-0.17993 0,-0.35986 0,-0.53979 0,-0.12852 0,-0.25705 0,-0.38557 0,-0.0171 -0.005,-0.0306 0.0193,-0.0385 0.0122,-0.004 0.0326,-0.0114 0.0386,0 0.0791,0.15037 0.23176,0.57182 0.28917,0.73257 0.0526,0.14737 0.10036,0.29648 0.15423,0.4434 0.1913,0.52172 0.3258,0.89347 0.57835,1.38804 0.0422,0.0825 0.10447,0.15315 0.15423,0.23134 0.0852,0.1339 0.1616,0.27344 0.25061,0.40485 0.0501,0.0739 0.1878,0.27301 0.2699,0.25061 0.0554,-0.0151 0.11097,-0.0393 0.15423,-0.0771 0.0145,-0.0127 -0.005,-0.0392 0,-0.0578 0.0339,-0.12984 0.0888,-0.2541 0.11567,-0.38557 0.095,-0.46566 0.0771,-0.858 0.0771,-1.3302 0,-0.11568 0,-0.23134 0,-0.34701 0,-0.0257 0,-0.0514 0,-0.0771 0,-0.006 -0.006,-0.0193 0,-0.0193 0.0144,0 0.0304,0.007 0.0386,0.0193 0.0765,0.11188 0.13899,0.23283 0.21206,0.34701 0.17303,0.27037 0.36143,0.5548 0.63618,0.73258 0.0216,0.014 0.0515,-0.002 0.0771,0 0.17957,0.0163 0.1285,0.0681 0.26989,-0.11567 0.0263,-0.0342 0.0373,-0.0778 0.0578,-0.11567 0.1818,-0.33563 0.25723,-0.44899 0.4434,-0.80969 0.0806,-0.15624 0.0686,-0.24977 0.2699,-0.2699 0.0256,-0.003 0.0539,-0.011 0.0771,0 0.25787,0.12215 0.63224,0.43297 0.82897,0.55907 0.0654,0.0419 0.14033,0.0667 0.21206,0.0964 0.1918,0.0795 0.37766,0.17809 0.57835,0.23134 0.0568,0.0151 0.38503,0.0554 0.50123,-0.0193 0.14271,-0.0917 0.30306,-0.17273 0.40485,-0.30845 0.24132,-0.32177 0.24531,-1.05245 0.15423,-1.38804 -0.0891,-0.32813 -0.46808,-1.07961 -0.96392,-0.9832 -0.45222,0.0879 -0.95409,0.57198 -1.27237,0.86753 -0.2098,0.19481 -0.4102,0.39953 -0.61691,0.59763 -0.10175,0.0975 -0.21229,0.18614 -0.30845,0.28917 -0.26399,0.28285 -0.50596,0.58578 -0.77113,0.86753 -0.43796,0.46532 -0.52601,0.49847 -1.07959,0.86752 -0.21653,0.14435 -0.43231,0.29023 -0.65546,0.42412 -0.66876,0.40126 -1.52857,0.84603 -2.27484,1.06031 -0.37316,0.10714 -0.75374,0.19132 -1.13742,0.25062 -0.19757,0.0305 -1.12492,0.23714 -1.4266,-0.0771 -0.0836,-0.0871 -0.10851,-0.21598 -0.15423,-0.32773 -0.0613,-0.14975 -0.0486,-0.32041 -0.0578,-0.48195 -0.005,-0.0962 -0.0213,-0.19519 0,-0.28918 0.0122,-0.0539 0.0625,-0.0913 0.0964,-0.13495 0.0112,-0.0143 0.0222,-0.0306 0.0386,-0.0385 0.7063,-0.34177 0.62849,-0.27783 1.44587,-0.28918 0.278,-0.004 1.25018,-7.9e-4 1.48443,0.0193 2.66376,0.22739 -1.4482,2.5e-4 1.73505,0.25061 0.24985,0.0197 0.50125,-0.003 0.75186,0 2.91118,0.0317 -1.69352,0.0193 2.98814,0.0193 1.42659,0 2.85319,0 4.27978,0"
       id="path22560" />
    <path
       style="fill:#ffffff;fill-opacity:1;stroke:#000000;stroke-width:0.499999;stroke-linecap:round;stroke-dasharray:none;stroke-dashoffset:0;stroke-opacity:1;paint-order:normal;stop-color:#000000"
       d="m 142.77028,194.30838 c 0.10562,0.27461 0.0964,0.16111 0.0964,0.32773 0,0.006 0.006,0.0221 0,0.0193 -0.0616,-0.0308 -0.0386,-0.11805 -0.0386,-0.17351"
       id="path22562" />
    <ellipse
       style="fill:#000000;fill-opacity:1;stroke:#000000;stroke-width:0.831822;stroke-linecap:round;stroke-linejoin:bevel;stroke-dasharray:none;stroke-opacity:1;stop-color:#000000"
       id="ellipse22564"
       cx="126.83596"
       cy="202.42433"
       inkscape:export-filename="boy_with_paper.svg"
       inkscape:export-xdpi="96"
       inkscape:export-ydpi="96"
       rx="4.1905847"
       ry="4.2956977" />
    <path
       style="fill:#000000;fill-opacity:1;stroke:#000000;stroke-width:0.382105;stroke-linecap:round;stroke-linejoin:bevel;stroke-dasharray:none;stroke-opacity:1;stop-color:#000000"
       d="m 120.92258,209.01341 c -1.76164,1.96457 -0.70703,7.97245 -0.70703,7.97245 l 13.74295,-0.0906 c 0,0 0.56301,-6.03006 -1.28149,-7.92714 -1.40243,-1.4424 -3.88983,-1.02626 -5.87646,-1.01887 -1.98964,0.007 -4.5315,-0.4374 -5.87797,1.06417 z"
       id="path22568"
       sodipodi:nodetypes="accaaa" />
    <ellipse
       style="fill:#000000;fill-opacity:1;stroke:#000000;stroke-width:0.502034;stroke-linecap:round;stroke-linejoin:bevel;stroke-dasharray:none;stroke-opacity:1;stop-color:#000000"
       id="ellipse22570"
       cx="-250.433"
       cy="-24.750021"
       rx="0.8479476"
       ry="1.5067334"
       transform="matrix(-0.46067475,-0.88756903,-0.87697738,0.48053165,0,0)" />
    <ellipse
       style="fill:#000000;fill-opacity:1;stroke:#000000;stroke-width:0.831822;stroke-linecap:round;stroke-linejoin:bevel;stroke-dasharray:none;stroke-opacity:1;stop-color:#000000"
       id="ellipse22576"
       cx="153.67139"
       cy="202.42433"
       inkscape:export-filename="boy_with_paper.svg"
       inkscape:export-xdpi="96"
       inkscape:export-ydpi="96"
       rx="4.1905847"
       ry="4.2956977" />
    <ellipse
       style="fill:#000000;fill-opacity:1;stroke:#000000;stroke-width:0.502034;stroke-linecap:round;stroke-linejoin:bevel;stroke-dasharray:none;stroke-opacity:1;stop-color:#000000"
       id="ellipse22578"
       cx="-124.69354"
       cy="218.94547"
       rx="0.8479476"
       ry="1.5067334"
       transform="matrix(0.42687545,-0.90431043,0.89447516,0.44711765,0,0)" />
    <path
       style="fill:#000000;fill-opacity:1;stroke:#000000;stroke-width:0.382105;stroke-linecap:round;stroke-linejoin:bevel;stroke-dasharray:none;stroke-opacity:1;stop-color:#000000"
       d="m 147.75801,209.01341 c -1.76164,1.96457 -0.70703,7.97245 -0.70703,7.97245 l 13.74295,-0.0906 c 0,0 0.56301,-6.03006 -1.28149,-7.92714 -1.40243,-1.4424 -3.88983,-1.02626 -5.87646,-1.01887 -1.98964,0.007 -4.5315,-0.4374 -5.87797,1.06417 z"
       id="path22580"
       sodipodi:nodetypes="accaaa" />
    <path
       sodipodi:type="star"
       style="fill:#ffffff;fill-opacity:1;stroke:#000000;stroke-width:1.63276;stroke-linecap:round;stroke-dasharray:none;stroke-dashoffset:0;stroke-opacity:1;paint-order:normal;stop-color:#000000"
       id="path22656"
       inkscape:flatsided="false"
       sodipodi:sides="5"
       sodipodi:cx="42.866211"
       sodipodi:cy="653.91577"
       sodipodi:r1="10.528633"
       sodipodi:r2="4.5456691"
       sodipodi:arg1="0.70225693"
       sodipodi:arg2="1.3305755"
       inkscape:rounded="0"
       inkscape:randomized="0"
       d="m 50.903625,660.71666 -6.955922,-2.38575 -5.065824,5.33049 0.119482,-7.35271 -6.635017,-3.17068 7.029766,-2.15848 0.965158,-7.29007 4.225153,6.0187 7.231517,-1.33483 -4.418478,5.87824 z"
       transform="matrix(0.26458333,0,0,0.26458333,134.21897,24.111128)"
       inkscape:transform-center-x="0.20480611"
       inkscape:transform-center-y="-0.063592516" />
  </g>
</svg>
